[Header]
FileType HTR
DataType HTRS
FileVersion 1
NumSegments 22
NumFrames 8
DataFrameRate 24
EulerRotationOrder ZYX
CalibrationUnits mm
RotationUnits Degrees
GlobalAxisofGravity Y
BoneLengthAxis Y
ScaleFactor 1.0
[SegmentNames&Hierarchy]
reference	GLOBAL
Hips	reference
Spine	Hips
Spine1	Spine
Neck	Spine1
Head	Neck
LeftShoulder	Spine1
LeftArm	LeftShoulder
LeftForeArm	LeftArm
LeftHand	LeftForeArm
RightShoulder	Spine1
RightArm	RightShoulder
RightForeArm	RightArm
RightHand	RightForeArm
LeftUpLeg	Hips
LeftLeg	LeftUpLeg
LeftFoot	LeftLeg
LeftToeBase	LeftFoot
RightUpLeg	Hips
RightLeg	RightUpLeg
RightFoot	RightLeg
RightToeBase	RightFoot
[BasePosition]
reference	0	0	0	0	0	0	1
Hips	0	0	0	0	0	0	1
Spine	0	0	0	0	-0	90	1
Spine1	0	0	0	0	0	0	1
Neck	0	0	0	-7.352430803	-7.352430803	90	1
Head	0	0	0	0	-0	90	1
LeftShoulder	0	0	0	0	0	0	1
LeftArm	0	0	0	0	0	0	1
LeftForeArm	0	0	0	0	0	0	1
LeftHand	0	0	0	0	0	0	1
RightShoulder	0	0	0	0	-0	180	1
RightArm	0	0	0	0	-0	180	1
RightForeArm	0	0	0	0	-0	180	1
RightHand	0	0	0	0	-0	180	1
LeftUpLeg	0	0	0	0	-0	-90	1
LeftLeg	0	0	0	0	-0	-90	1
LeftFoot	0	0	0	66.57150701	-66.57150701	-90	1
LeftToeBase	0	0	0	0	-90	0	1
RightUpLeg	0	0	0	0	-0	-90	1
RightLeg	0	0	0	0	-0	-90	1
RightFoot	0	0	0	66.57150701	-66.57150701	-90	1
RightToeBase	0	0	0	0	-90	0	1
[reference]
20	0	0	0	0	-0	0	1.0
21	0	0	0	0	-0	0	1.0
22	0	0	0	0	-0	0	1.0
23	0	0	0	0	-0	0	1.0
24	0	0	0	0	-0	0	1.0
25	0	0	0	0	-0	0	1.0
26	0	0	0	0	-0	0	1.0
27	0	0	0	0	-0	0	1.0
[Hips]
20	4.97627449	8.749807358	0.8479616046	-17.59871674	-88.5315094	18.34538841	1.0
21	4.780201435	8.734069824	0.900606811	-69.52018738	-89.54897308	69.43692017	1.0
22	4.552099228	8.689631462	0.9538346529	-163.8401947	-88.87168884	162.9245605	1.0
23	4.289493561	8.632627487	1.012802124	-173.9583282	-87.67458344	172.005127	1.0
24	3.994149208	8.559632301	1.075587749	-175.2130737	-86.65103149	171.9471436	1.0
25	3.67343998	8.467947006	1.153300047	-179.0504761	-85.93302917	174.8466797	1.0
26	3.32629776	8.348356247	1.244829535	-183.5638885	-85.59719086	178.8751984	1.0
27	2.947191715	8.210220337	1.364585042	-190.2406006	-86.3596344	185.4036255	1.0
[Spine]
20	0	0.7478299737	0	-9.818072319	4.059331894	-89.06789398	1.0
21	0	0.7478299737	0	-10.05454254	4.374646664	-88.56955719	1.0
22	0	0.7478299737	0	-10.58794689	4.649971962	-88.23069763	1.0
23	0	0.7478299737	0	-11.08748436	5.001961231	-88.41677856	1.0
24	0	0.7478299737	0	-11.21061134	5.208022594	-88.53515625	1.0
25	0	0.7478299737	0	-11.56007004	5.54790163	-88.55264282	1.0
26	0	0.7478299737	0	-11.96770763	5.986690998	-88.65146637	1.0
27	0	0.7478299737	0	-12.30600166	6.408859253	-88.70469666	1.0
[Spine1]
20	0	2.049309969	0	9.840983391	1.380109191	-0.677087009	1.0
21	0	2.049309969	0	10.83973312	1.499100566	-0.88752985	1.0
22	0	2.049309969	0	11.97301579	1.584193707	-0.8115254045	1.0
23	0	2.049309969	0	12.78816414	1.63209939	-0.2145830244	1.0
24	0	2.049309969	0	13.09093475	1.706508398	-0.07642072439	1.0
25	0	2.049309969	0	12.48948383	1.771357417	0.2440647632	1.0
26	0	2.049309969	0	11.1883049	1.86764586	0.9228676558	1.0
27	0	2.049309969	0	9.550667763	1.976689458	1.244261861	1.0
[Neck]
20	0	2.231709957	0	2.602861643	11.19719791	-90.63297272	1.0
21	0	2.231709957	0	2.866932869	11.73271465	-91.19947052	1.0
22	0	2.231709957	0	3.1550107	12.16426945	-91.5191803	1.0
23	0	2.231709957	0	4.012732506	12.81108284	-91.82501221	1.0
24	0	2.231709957	0	5.725410938	13.22118187	-90.96621704	1.0
25	0	2.231709957	0	7.598087788	13.6476984	-91.58662415	1.0
26	0	2.231709957	0	9.70981884	13.57766914	-91.34770203	1.0
27	0	2.231709957	0	10.7770443	13.34007263	-91.51419067	1.0
[Head]
20	0	1.413589954	0.1823999882	-8.183716774	3.868951321	-90.6231842	1.0
21	0	1.413589954	0.1823999882	-9.392888069	4.331654072	-90.43834686	1.0
22	0	1.413589954	0.1823999882	-9.976679802	4.734831333	-90.68279266	1.0
23	0	1.413589954	0.1823999882	-10.69771194	5.330946445	-90.79589844	1.0
24	0	1.413589954	0.1823999882	-11.25667381	5.83212328	-92.07273102	1.0
25	0	1.413589954	0.1823999882	-11.49431705	6.096342564	-90.47750854	1.0
26	0	1.413589954	0.1823999882	-11.00928116	6.043366432	-91.0042572	1.0
27	0	1.413589954	0.1823999882	-10.12832069	5.751374245	-90.27952576	1.0
[LeftShoulder]
20	0.3649300039	1.825889945	-0.04271000251	-10.26256752	-6.560549259	1.108337164	1.0
21	0.3649300039	1.825889945	-0.04271000251	-9.994015694	-6.242614269	1.18327105	1.0
22	0.3649300039	1.825889945	-0.04271000251	-9.647151947	-5.853381157	1.308042049	1.0
23	0.3649300039	1.825889945	-0.04271000251	-9.019757271	-5.639734268	1.026722431	1.0
24	0.3649300039	1.825889945	-0.04271000251	-9.036931038	-5.38613224	1.466004729	1.0
25	0.3649300039	1.825889945	-0.04271000251	-9.166840553	-4.796301365	1.605060339	1.0
26	0.3649300039	1.825889945	-0.04271000251	-10.42490005	-4.218980789	1.716997981	1.0
27	0.3649300039	1.825889945	-0.04271000251	-11.85744572	-4.083479881	1.992567182	1.0
[LeftArm]
20	1.24003005	0	0	35.42964935	11.71439457	-77.96356201	1.0
21	1.24003005	0	0	31.10970688	12.29080772	-77.4720459	1.0
22	1.24003005	0	0	29.35843849	12.3882637	-77.42398071	1.0
23	1.24003005	0	0	28.29240608	11.56574154	-76.72375488	1.0
24	1.24003005	0	0	28.97043991	10.25700855	-75.73278046	1.0
25	1.24003005	0	0	30.69439697	7.610672951	-73.96579742	1.0
26	1.24003005	0	0	31.99306297	3.898006916	-71.47314453	1.0
27	1.24003005	0	0	34.03692627	-2.150318861	-68.91269684	1.0
[LeftForeArm]
20	2.847419977	0	0	-14.75487709	-24.41783524	2.086460114	1.0
21	2.847419977	0	0	-13.32747841	-28.1837368	1.669694543	1.0
22	2.847419977	0	0	-15.17862415	-32.60552216	3.824390888	1.0
23	2.847419977	0	0	-17.39225006	-37.31323624	7.895452023	1.0
24	2.847419977	0	0	-21.18815613	-42.26055527	14.77369308	1.0
25	2.847419977	0	0	-28.00058174	-47.28917694	25.43157387	1.0
26	2.847419977	0	0	-35.11109543	-51.66585541	36.78172684	1.0
27	2.847419977	0	0	-44.84123611	-54.0699501	49.29833221	1.0
[LeftHand]
20	2.258270025	0	0	-14.20980263	-9.05134201	-1.179864645	1.0
21	2.258270025	0	0	-12.90192509	-9.404091835	-0.06785608083	1.0
22	2.258270025	0	0	-14.46693134	-9.741355896	4.784348011	1.0
23	2.258270025	0	0	-15.37722874	-9.977860451	7.556869984	1.0
24	2.258270025	0	0	-16.33078194	-9.865537643	10.17335033	1.0
25	2.258270025	0	0	-17.66605759	-9.726065636	11.15370369	1.0
26	2.258270025	0	0	-17.65898705	-8.793251038	10.88973808	1.0
27	2.258270025	0	0	-19.30902672	-8.563357353	11.0021944	1.0
[RightShoulder]
20	-0.3646599948	1.825889945	-0.04271000251	-8.398542404	10.16403389	-181.146698	1.0
21	-0.3646599948	1.825889945	-0.04271000251	-7.551886559	10.53110313	-181.3693542	1.0
22	-0.3646599948	1.825889945	-0.04271000251	-7.150912762	11.01375389	-181.4985657	1.0
23	-0.3646599948	1.825889945	-0.04271000251	-7.144603729	11.20862198	-181.7764587	1.0
24	-0.3646599948	1.825889945	-0.04271000251	-7.313867569	11.73587704	-181.8077698	1.0
25	-0.3646599948	1.825889945	-0.04271000251	-7.949090004	12.49274445	-182.1405334	1.0
26	-0.3646599948	1.825889945	-0.04271000251	-8.97705555	13.39352131	-182.3847046	1.0
27	-0.3646599948	1.825889945	-0.04271000251	-10.52574539	14.25067139	-182.5645294	1.0
[RightArm]
20	-1.24003005	0	0	39.07765198	-6.599794388	-98.96653748	1.0
21	-1.24003005	0	0	39.19707108	-5.821695328	-99.1891861	1.0
22	-1.24003005	0	0	38.49250412	-5.346716404	-99.99430084	1.0
23	-1.24003005	0	0	40.18960571	-4.502984047	-100.7497559	1.0
24	-1.24003005	0	0	41.76512527	-2.623993158	-101.7856598	1.0
25	-1.24003005	0	0	45.98252487	-0.04712314531	-102.874733	1.0
26	-1.24003005	0	0	49.51087952	3.796966553	-104.4861755	1.0
27	-1.24003005	0	0	48.6685257	8.976799011	-106.8893051	1.0
[RightForeArm]
20	-2.847419977	0	0	-0.2662696242	15.61297607	177.9881287	1.0
21	-2.847419977	0	0	-1.285274506	17.80261993	176.7909851	1.0
22	-2.847419977	0	0	-1.731879473	21.0593071	175.5632324	1.0
23	-2.847419977	0	0	-3.472500563	24.51809692	172.0958862	1.0
24	-2.847419977	0	0	-5.994352818	28.37482452	167.4768677	1.0
25	-2.847419977	0	0	-11.02697945	31.79556084	158.886322	1.0
26	-2.847419977	0	0	-16.96393967	34.21611786	148.6640625	1.0
27	-2.847419977	0	0	-22.53848076	37.93904495	139.6128845	1.0
[RightHand]
20	-2.258270025	0	0	-0.3590314984	7.151537895	174.0667725	1.0
21	-2.258270025	0	0	-1.260282755	7.576862335	172.8245544	1.0
22	-2.258270025	0	0	-1.561673641	8.54240799	171.213913	1.0
23	-2.258270025	0	0	-2.619861126	8.97336483	169.0358582	1.0
24	-2.258270025	0	0	-3.880486012	8.893904686	166.453537	1.0
25	-2.258270025	0	0	-6.126011848	8.5884161	164.4509888	1.0
26	-2.258270025	0	0	-8.265000343	8.611531258	164.4666443	1.0
27	-2.258270025	0	0	-9.231115341	7.753488541	163.6128693	1.0
[LeftUpLeg]
20	0.9119900465	0	0	-24.27926636	-8.591772079	99.79528809	1.0
21	0.9119900465	0	0	-22.9297905	-9.365690231	100.4091415	1.0
22	0.9119900465	0	0	-21.63285255	-7.041929722	99.71752167	1.0
23	0.9119900465	0	0	-20.44858742	-4.442651272	99.53018188	1.0
24	0.9119900465	0	0	-19.32242584	-3.668853283	100.4358521	1.0
25	0.9119900465	0	0	-19.11674118	-2.793551445	101.441864	1.0
26	0.9119900465	0	0	-20.17085075	-2.267723083	103.1820984	1.0
27	0.9119900465	0	0	-22.40332413	-2.213678122	105.2049713	1.0
[LeftLeg]
20	0	-4.371409893	0	28.22068405	10.46075726	81.72281647	1.0
21	0	-4.371409893	0	19.4042244	11.86114788	83.16469574	1.0
22	0	-4.371409893	0	13.11773491	10.772089	85.56627655	1.0
23	0	-4.371409893	0	8.883919716	10.51714897	86.43186951	1.0
24	0	-4.371409893	0	6.485532761	12.09334946	86.08969116	1.0
25	0	-4.371409893	0	6.30606699	12.37230778	86.24269104	1.0
26	0	-4.371409893	0	8.558982849	12.75719643	84.86369324	1.0
27	0	-4.371409893	0	11.85760593	14.25934219	82.10451508	1.0
[LeftFoot]
20	0	-3.918009996	0	-56.42441559	100.5812149	-16.00680733	1.0
21	0	-3.918009996	0	-65.34722137	98.78497314	-28.90791321	1.0
22	0	-3.918009996	0	-76.46986389	96.3963623	-45.56912613	1.0
23	0	-3.918009996	0	-80.25889587	94.34751892	-52.29391479	1.0
24	0	-3.918009996	0	-60.05583954	93.3506012	-33.31007385	1.0
25	0	-3.918009996	0	-62.22021484	94.18583679	-34.57180786	1.0
26	0	-3.918009996	0	-61.22385406	96.84078979	-29.10731506	1.0
27	0	-3.918009996	0	-59.46318054	100.5394897	-23.14276695	1.0
[LeftToeBase]
20	0	-0.5927900076	1.367989898	0	0	0	1.0
21	0	-0.5927900076	1.367989898	0	0	0	1.0
22	0	-0.5927900076	1.367989898	0	0	0	1.0
23	0	-0.5927900076	1.367989898	0	0	0	1.0
24	0	-0.5927900076	1.367989898	0	0	0	1.0
25	0	-0.5927900076	1.367989898	0	0	0	1.0
26	0	-0.5927900076	1.367989898	0	0	0	1.0
27	0	-0.5927900076	1.367989898	0	0	0	1.0
[RightUpLeg]
20	-0.9119900465	0	0	8.715642929	-7.388383865	92.72212982	1.0
21	-0.9119900465	0	0	10.64905548	-6.738708973	92.06334686	1.0
22	-0.9119900465	0	0	12.76232815	-6.863455296	91.28431702	1.0
23	-0.9119900465	0	0	15.25442314	-7.916886806	90.05335236	1.0
24	-0.9119900465	0	0	18.35456848	-8.969800949	88.64016724	1.0
25	-0.9119900465	0	0	21.02010918	-9.799933434	87.15940857	1.0
26	-0.9119900465	0	0	23.83467293	-10.61441422	85.67420959	1.0
27	-0.9119900465	0	0	26.87666321	-12.58177567	83.58937836	1.0
[RightLeg]
20	0	-4.371409893	0	4.810585022	-2.045076609	89.38199615	1.0
21	0	-4.371409893	0	5.24075079	-2.107170105	89.38637543	1.0
22	0	-4.371409893	0	5.788921833	-1.420382977	89.22935486	1.0
23	0	-4.371409893	0	6.467384338	-0.3067217469	88.81643677	1.0
24	0	-4.371409893	0	7.131420612	0.7823750973	88.12577057	1.0
25	0	-4.371409893	0	8.254832268	1.691922426	87.67086792	1.0
26	0	-4.371409893	0	8.74202919	-0.7023374438	86.68578339	1.0
27	0	-4.371409893	0	8.875033379	1.681179047	86.87718964	1.0
[RightFoot]
20	0	-3.918009996	0	41.13465118	63.94904327	83.59838104	1.0
21	0	-3.918009996	0	41.60245132	63.36922073	85.42217255	1.0
22	0	-3.918009996	0	42.34558105	62.3202095	87.5711441	1.0
23	0	-3.918009996	0	43.50428772	61.63868713	90.61278534	1.0
24	0	-3.918009996	0	44.73310852	60.50574493	93.60357666	1.0
25	0	-3.918009996	0	45.57653427	59.53067398	96.50209808	1.0
26	0	-3.918009996	0	52.61155701	59.16225052	105.8121033	1.0
27	0	-3.918009996	0	50.97164154	56.87647247	105.3175507	1.0
[RightToeBase]
20	0	-0.5927900076	1.367989898	0	0	0	1.0
21	0	-0.5927900076	1.367989898	0	0	0	1.0
22	0	-0.5927900076	1.367989898	0	0	0	1.0
23	0	-0.5927900076	1.367989898	0	0	0	1.0
24	0	-0.5927900076	1.367989898	0	0	0	1.0
25	0	-0.5927900076	1.367989898	0	0	0	1.0
26	0	-0.5927900076	1.367989898	0	0	0	1.0
27	0	-0.5927900076	1.367989898	0	0	0	1.0
[EndOfFile]
